<?xml version="1.0" encoding="UTF-8" standalone="no"?><!DOCTYPE svg PUBLIC "-//W3C//DTD SVG 1.1//EN" "http://www.w3.org/Graphics/SVG/1.1/DTD/svg11.dtd">
<svg width="100%" height="100%" viewBox="0 0 38 10" version="1.1"
    xmlns="http://www.w3.org/2000/svg"
    xmlns:xlink="http://www.w3.org/1999/xlink" xml:space="preserve" style="fill-rule:evenodd;clip-rule:evenodd;stroke-linejoin:round;stroke-miterlimit:2;">
    <g>
        <path d="M2.216,4.333c0.082,0 0.122,0.151 0.122,0.451c0,0.09 -0.009,0.196 -0.029,0.318c-0.019,0.123 -0.054,0.184 -0.106,0.184l-0.817,-0l0,0.643l1.184,0c0.073,0 0.122,0.095 0.148,0.284c0.013,0.081 0.019,0.168 0.019,0.26c0,0.092 -0.012,0.211 -0.038,0.357c-0.026,0.146 -0.069,0.219 -0.129,0.219l-2.201,0c-0.163,0 -0.244,-0.066 -0.244,-0.199l-0,-4.138c-0,-0.112 0.049,-0.168 0.148,-0.168l2.304,0c0.09,0 0.135,0.19 0.135,0.57c-0,0.38 -0.045,0.57 -0.135,0.57l-1.191,-0l0,0.649l0.83,0Z" style="fill:#fff;fill-rule:nonzero;"/>
        <path d="M4.674,7.043c0,0.03 -0.195,0.045 -0.585,0.045c-0.391,-0.009 -0.586,-0.026 -0.586,-0.052l0,-2.136l-0.174,-0c-0.068,-0 -0.123,-0.042 -0.164,-0.126c-0.04,-0.083 -0.061,-0.187 -0.061,-0.312c0,-0.463 0.138,-0.695 0.412,-0.695c0.193,0 0.354,0.059 0.483,0.177c0.128,0.118 0.193,0.252 0.193,0.402c0.09,-0.176 0.211,-0.316 0.363,-0.421c0.153,-0.105 0.308,-0.158 0.467,-0.158c0.249,0 0.399,0.065 0.45,0.193c0.013,0.035 0.02,0.085 0.02,0.151c-0,0.067 -0.021,0.186 -0.061,0.358c-0.041,0.171 -0.083,0.296 -0.126,0.373c-0.043,0.077 -0.069,0.116 -0.077,0.116c-0.009,-0 -0.048,-0.016 -0.119,-0.049c-0.071,-0.032 -0.134,-0.048 -0.19,-0.048c-0.163,0 -0.245,0.129 -0.245,0.386l0,1.796Z" style="fill:#fff;fill-rule:nonzero;"/>
        <path d="M6.991,7.01c0,0.035 -0.196,0.052 -0.589,0.052c-0.392,-0 -0.589,-0.015 -0.589,-0.045l0,-3.16c0,-0.03 0.197,-0.045 0.589,-0.045c0.393,0 0.589,0.013 0.589,0.039l0,3.159Zm0,-3.539c0,0.03 -0.196,0.045 -0.589,0.045c-0.392,0 -0.589,-0.013 -0.589,-0.038l0,-0.927c0,-0.043 0.197,-0.064 0.589,-0.064c0.393,-0 0.589,0.012 0.589,0.038l0,0.946Z" style="fill:#fff;fill-rule:nonzero;"/>
        <path d="M7.57,2.596c0,-0.069 0.195,-0.103 0.586,-0.103c0.364,0.013 0.547,0.041 0.547,0.084l-0,2.471l0.637,-1.178c0.03,-0.064 0.212,-0.096 0.547,-0.096c0.334,-0 0.549,0.021 0.643,0.064l-0.836,1.364l0.965,1.808c0.009,0.018 -0.072,0.032 -0.241,0.042c-0.17,0.011 -0.31,0.016 -0.422,0.016c-0.412,0 -0.633,-0.019 -0.663,-0.058l-0.637,-1.428l0,1.422c0,0.056 -0.187,0.084 -0.563,0.084c-0.375,-0 -0.563,-0.026 -0.563,-0.078l0,-4.414Z" style="fill:#fff;fill-rule:nonzero;"/>
        <path d="M11.296,4.713c-0.12,-0.214 -0.18,-0.389 -0.18,-0.524c-0,-0.135 0.036,-0.222 0.109,-0.261c0.245,-0.107 0.581,-0.161 1.007,-0.161c0.427,0 0.729,0.1 0.905,0.299c0.175,0.2 0.263,0.495 0.263,0.885l0,1.017l0.219,-0c0.073,-0 0.13,0.043 0.171,0.129c0.041,0.085 0.061,0.203 0.061,0.354c-0,0.15 -0.038,0.298 -0.113,0.444c-0.075,0.145 -0.177,0.218 -0.305,0.218c-0.232,0 -0.419,-0.062 -0.56,-0.186c-0.065,-0.052 -0.114,-0.114 -0.148,-0.187c-0.198,0.249 -0.504,0.373 -0.92,0.373c-0.314,0 -0.578,-0.111 -0.792,-0.334c-0.215,-0.223 -0.322,-0.487 -0.322,-0.792c0,-0.699 0.419,-1.049 1.255,-1.049l0.354,0l0,-0.064c0,-0.112 -0.018,-0.183 -0.055,-0.216c-0.036,-0.032 -0.121,-0.048 -0.254,-0.048c-0.163,0 -0.395,0.034 -0.695,0.103Zm0.515,1.184c-0,0.095 0.026,0.166 0.077,0.216c0.052,0.049 0.117,0.074 0.196,0.074c0.08,-0 0.152,-0.032 0.216,-0.097l0,-0.495l-0.18,-0c-0.206,-0 -0.309,0.101 -0.309,0.302Z" style="fill:#fff;fill-rule:nonzero;"/>
        <path d="M18.96,6.94c0,0.073 -0.216,0.109 -0.65,0.109c-0.433,0 -0.65,-0.036 -0.65,-0.109l0,-1.48l-0.9,-0l-0,1.48c-0,0.073 -0.217,0.109 -0.65,0.109c-0.434,0 -0.65,-0.036 -0.65,-0.109l-0,-4.267c-0,-0.09 0.216,-0.135 0.65,-0.135c0.433,0 0.65,0.045 0.65,0.135l-0,1.512l0.9,0l0,-1.499c0,-0.06 0.108,-0.103 0.322,-0.129c0.112,-0.008 0.221,-0.013 0.328,-0.013l0.329,0.013c0.214,0.026 0.321,0.069 0.321,0.129l0,4.254Z" style="fill:#fff;fill-rule:nonzero;"/>
        <path d="M22.004,6.875c-0.27,0.159 -0.618,0.238 -1.042,0.238c-0.425,0 -0.783,-0.144 -1.075,-0.434c-0.292,-0.29 -0.438,-0.691 -0.438,-1.203c0,-0.513 0.141,-0.926 0.422,-1.239c0.281,-0.313 0.636,-0.47 1.065,-0.47c0.429,0 0.76,0.11 0.994,0.328c0.234,0.219 0.351,0.485 0.351,0.798c-0,0.695 -0.399,1.043 -1.197,1.043l-0.444,-0c-0,0.129 0.035,0.218 0.106,0.267c0.071,0.049 0.175,0.074 0.312,0.074c0.301,-0 0.586,-0.069 0.856,-0.206c0.004,-0.004 0.024,0.026 0.058,0.09c0.103,0.185 0.154,0.34 0.154,0.467c0,0.126 -0.04,0.209 -0.122,0.247Zm-0.804,-1.859c-0,-0.181 -0.088,-0.271 -0.264,-0.271c-0.082,0 -0.151,0.025 -0.209,0.074c-0.058,0.05 -0.087,0.122 -0.087,0.216l-0,0.199l0.347,0c0.142,0 0.213,-0.073 0.213,-0.218Z" style="fill:#fff;fill-rule:nonzero;"/>
        <path d="M24.044,7.01c0,0.03 -0.154,0.046 -0.463,0.046c-0.429,-0.013 -0.644,-0.037 -0.644,-0.071l0,-2.085l-0.167,-0c-0.112,-0 -0.185,-0.095 -0.219,-0.283c-0.008,-0.056 -0.013,-0.112 -0.013,-0.168c0,-0.133 0.026,-0.266 0.078,-0.399c0.077,-0.188 0.197,-0.283 0.36,-0.283c0.163,0 0.309,0.039 0.437,0.116c0.129,0.077 0.215,0.154 0.258,0.232c0.27,-0.232 0.592,-0.348 0.965,-0.348c0.373,0 0.644,0.101 0.811,0.303c0.167,0.201 0.251,0.532 0.251,0.991l-0,1.93c-0,0.052 -0.183,0.077 -0.55,0.077c-0.367,0 -0.55,-0.025 -0.55,-0.077l-0,-1.86c-0,-0.214 -0.076,-0.321 -0.226,-0.321c-0.043,-0 -0.103,0.018 -0.18,0.054c-0.077,0.037 -0.126,0.064 -0.148,0.081l0,2.065Z" style="fill:#fff;fill-rule:nonzero;"/>
        <path d="M27.873,2.583c0,-0.064 0.169,-0.096 0.508,-0.096c0.116,-0 0.25,0.007 0.403,0.022c0.152,0.015 0.228,0.035 0.228,0.061l0,3.392l0.225,-0c0.108,-0 0.178,0.096 0.213,0.289c0.008,0.056 0.012,0.132 0.012,0.229c0,0.096 -0.03,0.213 -0.09,0.35c-0.085,0.189 -0.223,0.283 -0.411,0.283c-0.142,0 -0.268,-0.027 -0.377,-0.083c-0.109,-0.056 -0.183,-0.114 -0.222,-0.174l-0.058,-0.084c-0.236,0.228 -0.532,0.341 -0.888,0.341c-0.356,0 -0.661,-0.148 -0.914,-0.444c-0.253,-0.296 -0.379,-0.709 -0.379,-1.238c-0,-0.53 0.133,-0.94 0.399,-1.229c0.266,-0.29 0.598,-0.435 0.997,-0.435c0.116,0 0.234,0.013 0.354,0.039l0,-1.223Zm-0.212,2.214c-0.241,-0 -0.361,0.216 -0.361,0.65c0,0.219 0.035,0.376 0.103,0.473c0.069,0.096 0.145,0.145 0.229,0.145c0.083,-0 0.164,-0.037 0.241,-0.11l0,-1.094c-0.073,-0.043 -0.144,-0.064 -0.212,-0.064Z" style="fill:#fff;fill-rule:nonzero;"/>
        <path d="M30.016,5.891c0.347,0.21 0.622,0.315 0.824,0.315c0.128,0 0.193,-0.045 0.193,-0.135c-0,-0.064 -0.112,-0.148 -0.335,-0.251c-0.536,-0.219 -0.804,-0.577 -0.804,-1.075c-0,-0.317 0.115,-0.56 0.347,-0.727c0.232,-0.167 0.51,-0.251 0.833,-0.251c0.324,0 0.599,0.034 0.824,0.103c0.225,0.069 0.338,0.159 0.338,0.27c0,0.095 -0.046,0.219 -0.138,0.374c-0.093,0.154 -0.156,0.238 -0.19,0.251c-0.185,-0.103 -0.384,-0.155 -0.599,-0.155c-0.115,0 -0.173,0.041 -0.173,0.122c-0,0.052 0.022,0.096 0.067,0.132c0.045,0.037 0.128,0.082 0.248,0.135c0.12,0.054 0.22,0.102 0.299,0.145c0.08,0.043 0.169,0.103 0.267,0.18c0.206,0.163 0.309,0.376 0.309,0.638c0,0.343 -0.114,0.621 -0.341,0.833c-0.227,0.212 -0.571,0.318 -1.03,0.318c-0.304,0 -0.581,-0.051 -0.83,-0.154c-0.249,-0.103 -0.373,-0.245 -0.373,-0.425c0,-0.12 0.029,-0.246 0.087,-0.379c0.058,-0.133 0.117,-0.221 0.177,-0.264Z" style="fill:#fff;fill-rule:nonzero;"/>
        <path d="M35.209,6.875c-0.27,0.159 -0.618,0.238 -1.042,0.238c-0.425,0 -0.783,-0.144 -1.075,-0.434c-0.292,-0.29 -0.438,-0.691 -0.438,-1.203c0,-0.513 0.141,-0.926 0.422,-1.239c0.281,-0.313 0.636,-0.47 1.065,-0.47c0.429,0 0.76,0.11 0.994,0.328c0.234,0.219 0.351,0.485 0.351,0.798c-0,0.695 -0.399,1.043 -1.197,1.043l-0.444,-0c-0,0.129 0.035,0.218 0.106,0.267c0.071,0.049 0.175,0.074 0.312,0.074c0.3,-0 0.586,-0.069 0.856,-0.206c0.004,-0.004 0.024,0.026 0.058,0.09c0.103,0.185 0.154,0.34 0.154,0.467c0,0.126 -0.04,0.209 -0.122,0.247Zm-0.804,-1.859c-0,-0.181 -0.088,-0.271 -0.264,-0.271c-0.082,0 -0.151,0.025 -0.209,0.074c-0.058,0.05 -0.087,0.122 -0.087,0.216l-0,0.199l0.347,0c0.142,0 0.213,-0.073 0.213,-0.218Z" style="fill:#fff;fill-rule:nonzero;"/>
        <path d="M37.075,6.998c0,0.038 -0.219,0.058 -0.656,0.058c-0.343,-0.005 -0.515,-0.022 -0.515,-0.052l0,-4.382c0,-0.065 0.208,-0.097 0.624,-0.097c0.365,0.013 0.547,0.035 0.547,0.065l0,4.408Z" style="fill:#fff;fill-rule:nonzero;"/>
    </g>
</svg>