<?xml version="1.0" encoding="UTF-8" standalone="no"?><!DOCTYPE svg PUBLIC "-//W3C//DTD SVG 1.1//EN" "http://www.w3.org/Graphics/SVG/1.1/DTD/svg11.dtd"><svg width="100%" height="100%" viewBox="0 0 14997 14757" version="1.1" xmlns="http://www.w3.org/2000/svg" xmlns:xlink="http://www.w3.org/1999/xlink" xml:space="preserve" xmlns:serif="http://www.serif.com/" style="fill-rule:evenodd;clip-rule:evenodd;stroke-linejoin:round;stroke-miterlimit:2;"><g><path d="M173.15,6402.15l-0,8058.54l3077.96,-3078.04c33.75,-33.792 88.582,-33.792 122.458,0c33.792,33.875 33.792,88.667 -0,122.458l-3078.06,3077.96l14405.2,-0l-3077.96,-3077.96c-33.876,-33.791 -33.876,-88.583 -0,-122.458c33.791,-33.792 88.582,-33.792 122.374,0l3078.08,3078.04l-0,-8058.54l-6675.25,4824.08l-597.749,431.959c-3.917,2.958 -8.042,5.541 -12.292,7.791l-0.125,0l-1.167,0.709l-0.708,0.25l-0.584,0.333l-1.207,0.583l-0.084,0c-11,5.084 -22.709,7.584 -34.249,7.792l-3.334,-0c-11.583,-0.208 -23.25,-2.708 -34.125,-7.792l-0.125,0l-1.292,-0.583l-0.584,-0.333l-0.583,-0.25l-1.333,-0.709l-0.084,0c-4.25,-2.25 -8.291,-4.833 -12.166,-7.791l-2896.08,-2092.79c-95.792,-57.541 -183.417,-121.333 -261.25,-188.875l-4115.67,-2974.38Zm7323.42,5273.5m3.209,-0" style="fill:#ffc772;"/><path d="M5911.07,8916.61c133,218.374 166.166,443.499 67.917,623.374c-98.167,180 -305.459,273.917 -561.168,280.167c-78.041,1.875 -160.957,-4.375 -246.957,-19l2327.25,1681.88l2341.17,-1691.92c-105,21.708 -206.208,31.291 -300.458,29.041c-252.167,-6.125 -457.209,-97.542 -557,-272.708c-3.208,-4.626 -5.917,-9.709 -8.167,-14.875c-92.25,-176.833 -59.875,-395.917 67.792,-609.126c-241.625,108.334 -496.751,192.084 -762.167,247.792l-1.292,0.375c-12.5,2.584 -25.041,5.209 -37.541,7.667l-4.042,0.708c-12.292,2.501 -24.542,4.833 -36.958,7.209l-2.584,0.458c-50.083,9.334 -100.541,17.75 -151.207,25.167l-10.501,1.541c-9.458,1.292 -18.916,2.626 -28.333,3.917l-16.084,2.125c-8.624,1.041 -17.333,2.25 -26.083,3.292l-18.417,2.25c-8.291,0.958 -16.541,1.875 -24.958,2.833l-19.958,2.125c-7.917,0.833 -15.917,1.75 -23.834,2.459c-7.458,0.833 -14.75,1.457 -22.208,2.166c-7.334,0.708 -14.667,1.416 -21.959,2c-14.166,1.292 -28.374,2.458 -42.541,3.541c-5.541,0.459 -11.083,0.834 -16.667,1.167c-9.542,0.709 -19.124,1.417 -28.666,2c-6.292,0.501 -12.542,0.834 -18.667,1.209c-9,0.458 -17.833,1.041 -26.834,1.542l-19.124,0.916c-8.876,0.375 -17.833,0.833 -26.709,1.209l-18.999,0.708c-9.209,0.333 -18.418,0.583 -27.626,0.791l-17.958,0.501c-10.167,0.208 -20.333,0.457 -30.458,0.583l-15.251,0.25c-15.124,0.208 -30.457,0.333 -45.708,0.333c-14.75,0 -29.541,-0.125 -44.291,-0.25l-13.708,-0.208c-10.375,-0.251 -20.792,-0.376 -31.167,-0.583l-15.126,-0.376c-10.749,-0.333 -21.499,-0.708 -32.25,-1.041l-12.291,-0.501c-14.291,-0.458 -28.584,-1.166 -42.875,-1.875l-12.75,-0.708c-10.167,-0.5 -20.417,-1.083 -30.708,-1.666l-17.251,-1.167c-8.833,-0.584 -17.832,-1.208 -26.666,-1.916l-17.75,-1.292c-9.791,-0.709 -19.583,-1.542 -29.375,-2.334l-24.458,-2.25c-9.584,-0.833 -19.251,-1.791 -28.958,-2.749c-7.084,-0.709 -14.042,-1.417 -21.125,-2.209l-20.917,-2.25l-22.667,-2.625l-18.666,-2.208c-8.043,-0.958 -16.042,-1.917 -23.959,-2.958l-5.333,-0.709c-19.959,-2.625 -39.917,-5.334 -59.75,-8.292l-11.334,-1.624c-9.583,-1.417 -19.25,-2.959 -28.833,-4.501l-10.375,-1.666c-10.291,-1.626 -20.584,-3.292 -30.834,-5.083l-0.833,-0.125c-338.875,-57.25 -662.5,-159.792 -964.249,-300.917c3.874,6.125 7.791,12.292 11.458,18.417Z" style="fill:#fff;"/><path d="M3225.95,6319.73l-2872.33,-0l3580.62,2587.79c-69.208,-171.5 -72.875,-340.292 4.167,-481.208l0.209,-0.459c98.291,-179.625 305.458,-273.417 560.916,-279.667c116.458,-2.833 243.875,12.625 375.583,46.501c-15.958,-15.333 -31.666,-30.916 -47.375,-46.501c-374.875,-374.916 -671.208,-828.207 -862.541,-1333.25c-16.292,-1.291 -32.584,-3.166 -48.792,-5.416l-1.542,-0.25l-10.375,-1.542l-3.208,-0.583l-6.833,-1.041l-6.958,-1.209l-4.125,-0.833c-232.001,-42.375 -438.459,-183.542 -594.001,-389.75c-22.208,-29.542 -43.333,-60.459 -63.416,-92.583Z" style="fill:#999;"/><path d="M11707,6412.32c-155.459,206.208 -362.042,347.375 -594.126,389.875l-4.125,0.708l-6.75,1.209l-7.292,1.166l-2.833,0.458l-10.542,1.542l-1.499,0.25l-11.583,1.542l-0.251,-0c-12.291,1.625 -24.541,2.833 -36.957,3.874c-191.209,505.043 -487.667,958.334 -862.584,1333.25c-11.333,11.334 -22.791,22.668 -34.375,33.876c113.041,-25.042 222.208,-36.375 323.042,-33.876c255.624,6.25 462.749,100.042 561.041,279.793l0.125,0.333c83.25,152.374 72.167,337.083 -13.958,522.792l3638.42,-2629.38l-2872.21,-0c-20.083,32.124 -41.25,63.041 -63.541,92.583Z" style="fill:#999;"/><path d="M11031,4138.57c265.249,21.374 502.415,170.458 675.958,400.75c181.749,241.083 294.082,572.125 294.082,936.5c0,244.25 -50.541,473.499 -138.541,670.875l2807.33,-0l-7171.75,-5947.92l-7171.78,5947.92l2807.61,-0c-88.125,-197.376 -138.542,-426.625 -138.542,-670.875c0,-364.375 112.292,-695.417 293.958,-936.5c173.5,-230.209 410.667,-379.376 675.834,-400.625c191.333,-505.041 487.666,-958.458 862.541,-1333.33c683.417,-683.375 1627.58,-1106.12 2670.38,-1106.12c1042.79,-0 1986.96,422.75 2670.33,1106.12c374.917,374.875 671.375,828.292 862.584,1333.21Z" style="fill:#e6e6e6;"/><path d="M7498.11,1872.4c-995.083,-0 -1895.92,403.333 -2548,1055.42c-267.625,267.666 -493.333,577.333 -666.5,918.208c883.834,-799.25 3483.54,-2640.38 6442.21,26.084c-174.792,-351.125 -405.25,-669.792 -679.709,-944.292c-652.083,-652.084 -1552.92,-1055.42 -2548,-1055.42Z" style="fill:#fff;"/><path d="M10894.9,4270.15c-3524.08,-3507.63 -6586.67,-231.25 -6792.29,-2.959c-129.583,363.792 -202.334,754.626 -207.542,1161.75l-0,0.583c-0.125,15.334 -0.208,30.834 -0.208,46.292c-0,15.374 0.083,30.833 0.208,46.167l-0,0.624c3.083,235.751 28.708,466.042 74.875,688.792c0.708,2.625 1.333,5.209 1.792,7.916c6.708,32.376 13.916,64.5 21.625,96.501c4,16.792 8.125,33.791 12.625,51.042c6.625,26.332 13.583,52.208 20.667,77.708c22.541,81.125 47.958,161.083 75.958,239.875c205.625,228.292 3268.21,3504.58 6792.29,-3.083c133.667,-376.875 206.542,-782.709 206.542,-1205.54c0,-422.834 -72.875,-828.667 -206.542,-1205.67Z" style="fill:#006bb9;"/><path d="M10725.8,7079.52c-2958.67,2666.33 -5558.38,825.25 -6442.21,26.083c173.167,340.875 398.875,650.459 666.5,918.084c529.709,529.75 1223.63,895.292 1998.92,1013.88l0.584,0.083c43.708,6.625 87.625,12.542 131.916,17.625l6.167,0.708c12.875,1.417 25.708,2.833 38.583,4.125l4.958,0.584c28.709,2.833 57.542,5.458 86.458,7.708l9.25,0.584c11.084,0.916 22.167,1.624 33.417,2.332l11.334,0.709c11.916,0.834 23.833,1.416 35.916,2.125l6.501,0.375c14.166,0.709 28.333,1.292 42.625,1.875l9.333,0.375c10.958,0.334 21.958,0.708 32.958,0.916l13.667,0.376c10.042,0.25 20.083,0.458 30.124,0.583l13.126,0.25c14.041,0.125 28.125,0.25 42.166,0.25c14.625,0 29.167,-0.125 43.709,-0.25c4.708,-0.125 9.458,-0.25 14.291,-0.25c9.792,-0.208 19.584,-0.333 29.417,-0.583l16.416,-0.459c9.209,-0.249 18.418,-0.625 27.626,-0.833l16.541,-0.708c9.334,-0.375 18.542,-0.709 27.875,-1.209l15.708,-0.791c10.043,-0.5 19.959,-1.083 30,-1.667l13.209,-0.833c13.333,-0.834 26.833,-1.792 40.292,-2.833l2.458,-0.126c15,-1.166 29.917,-2.333 44.792,-3.749l3.541,-0.25c13.334,-1.209 26.667,-2.501 39.917,-3.793l9.083,-1.041c11.584,-1.208 23.042,-2.375 34.5,-3.667l10.25,-1.208c11.458,-1.292 22.917,-2.708 34.25,-4.125l9.001,-1.167c12.416,-1.541 24.916,-3.208 37.333,-4.958l5.417,-0.708c493.207,-69.209 954.582,-238.458 1362.62,-486.375c84.916,-69.584 180.25,-134.417 284.416,-191.958c139.958,-104.376 272.125,-218.625 395.333,-341.917c274.459,-274.5 504.917,-593.042 679.709,-944.167Z" style="fill:#fff;"/><path d="M3427.45,4643.48c-160.042,212.25 -258.917,506.334 -258.917,832.334c0,266.917 66.375,512.5 178.25,709.25c2.125,3.333 4.125,6.75 5.875,10.166c23.042,39.792 48.083,77.459 74.792,112.917c126.625,167.959 291.25,283.916 473.833,321.708c-89.75,-279.791 -147.625,-573.875 -169.583,-877.875l-1.542,-22.208l-1.416,-21.166c-0.584,-10.5 -1.167,-21 -1.751,-31.542l-0.708,-12.75c-0.625,-12.751 -1.208,-25.625 -1.667,-38.375l-0.375,-8.042c-0.458,-14.167 -0.916,-28.333 -1.291,-42.5l-0.125,-4.042c-0.333,-15.333 -0.709,-30.708 -0.834,-46.041l-0.083,-1.542c-0.125,-15.959 -0.25,-32 -0.25,-47.958c0,-16.042 0.125,-32.125 0.25,-48.084l0.083,-1.416c0.125,-15.459 0.501,-30.792 0.834,-46.167l0.125,-3.875c0.375,-14.334 0.833,-28.5 1.291,-42.666l0.375,-8.043c0.459,-12.749 1.042,-25.499 1.667,-38.374l0.708,-12.626c0.584,-10.625 1.167,-21.166 1.751,-31.666l1.416,-21.25l1.542,-22.084c21.958,-303.999 79.833,-598 169.583,-877.791c-182.583,37.667 -347.208,153.666 -473.833,321.708Z" style="fill:#fff;"/><path d="M11274.8,5475.82c0,194.416 -14.917,385.75 -43.375,572.708l-0.834,5.458c-1.999,12.626 -3.999,25.376 -5.999,38.001l-2.125,12.291l-4.042,23.5l-1.417,8.417l-3.292,18.416l-4.25,22.917c-4.375,23 -8.874,45.916 -13.583,68.833c-0.458,3.083 -1.167,6.167 -2,9.126c-26.708,127.291 -59.791,252.166 -99,374.374c182.75,-37.667 347.5,-153.624 474.125,-321.708c160.041,-212.375 258.876,-506.333 258.876,-832.333c-0,-326 -98.835,-620.084 -258.876,-832.334c-126.625,-168.042 -291.375,-284.166 -474.125,-321.833c47.25,147.167 85.542,298.209 114.583,452.459l4.125,22.708l3.417,18.666l1.417,8.25l4.042,23.376l2.125,12.541c2,12.625 4,25.25 5.999,37.917l0.834,5.416c28.458,187.083 43.375,378.292 43.375,572.834Z" style="fill:#fff;"/><path d="M9462.99,8701.4c-114.334,95.667 -206.084,200.208 -270.001,305.208c-101,165.833 -130.25,329.292 -63.792,450.959c66.376,121.625 219.585,185.291 413.625,190.125c210.709,5.083 464.667,-59.167 712.001,-194.167l0.083,-0.083c247.083,-134.917 438.459,-313.708 548.042,-493.709c99.458,-163.25 129.333,-324.124 66.958,-445.166c-2.334,-3.667 -4.458,-7.459 -6.25,-11.458c-68.041,-117.876 -219.458,-179.751 -410.542,-184.501c-208.708,-5.083 -459.916,58 -705.125,190.5c-91.875,68.293 -186.958,132.417 -284.999,192.292Z" style="fill:#fff;"/><path d="M4503.53,8318.61c-190.958,4.75 -342.5,66.625 -410.542,184.501c-1.749,3.999 -3.791,7.791 -6.25,11.458c-62.375,121.042 -32.499,281.916 66.959,445.166c58.583,96.25 140.667,192.167 242,281.209l249.208,180.125c16.666,9.916 33.542,19.5 50.667,29.041c4.375,1.875 8.625,4.126 12.666,6.834c245.292,132.667 496.75,195.833 705.584,190.75c194.042,-4.834 347.25,-68.5 413.75,-190.125c66.375,-121.667 37.083,-285.126 -63.917,-450.959c-108.666,-178.583 -297.75,-355.875 -541.875,-490.375c-4.375,-1.916 -8.625,-4.167 -12.667,-6.874c-245.291,-132.626 -496.75,-195.834 -705.583,-190.751Z" style="fill:#fff;"/><path d="M4283.61,3846.02c883.834,-799.25 3483.54,-2640.38 6442.21,26.084c-174.792,-351.125 -405.25,-669.792 -679.709,-944.292c-652.083,-652.084 -1552.92,-1055.42 -2548,-1055.42c-995.083,-0 -1895.92,403.333 -2548,1055.42c-267.625,267.666 -493.333,577.333 -666.5,918.208Zm-313.708,2365.38c0.708,2.625 1.333,5.209 1.792,7.916c6.708,32.376 13.916,64.5 21.625,96.501c4,16.792 8.125,33.791 12.625,51.042c6.625,26.332 13.583,52.208 20.667,77.708c22.541,81.125 47.958,161.083 75.958,239.875c205.625,228.292 3268.21,3504.58 6792.29,-3.083c133.667,-376.875 206.542,-782.709 206.542,-1205.54c0,-422.834 -72.875,-828.667 -206.542,-1205.67c-3524.08,-3507.63 -6586.67,-231.25 -6792.29,-2.959c-129.583,363.792 -202.334,754.626 -207.542,1161.75l-0,0.583c-0.125,15.334 -0.208,30.834 -0.208,46.292c-0,15.374 0.083,30.833 0.208,46.167l-0,0.624c3.083,235.751 28.708,466.042 74.875,688.792Zm7226,34.958c-0.458,3.083 -1.167,6.167 -2,9.126c-26.708,127.291 -59.791,252.166 -99,374.374c182.75,-37.667 347.5,-153.624 474.125,-321.708c160.041,-212.375 258.876,-506.333 258.876,-832.333c-0,-326 -98.835,-620.084 -258.876,-832.334c-126.625,-168.042 -291.375,-284.166 -474.125,-321.833c47.25,147.167 85.542,298.209 114.583,452.459c1.417,7.582 2.834,15.124 4.125,22.708c1.209,6.125 2.375,12.375 3.417,18.666l1.417,8.25c1.416,7.792 2.75,15.584 4.042,23.376c0.708,4.166 1.416,8.417 2.125,12.541c2,12.625 4,25.25 5.999,37.917l0.834,5.416c28.458,187.083 43.375,378.292 43.375,572.834c0,194.416 -14.917,385.75 -43.375,572.708l-0.834,5.458c-1.999,12.626 -3.999,25.376 -5.999,38.001c-0.709,4.167 -1.417,8.291 -2.125,12.291c-1.292,7.917 -2.626,15.709 -4.042,23.5l-1.417,8.417c-1.042,6.125 -2.208,12.249 -3.292,18.416c-1.416,7.667 -2.833,15.209 -4.25,22.917c-4.375,23 -8.874,45.916 -13.583,68.833Zm-7849.12,-61.291c2.125,3.333 4.125,6.75 5.875,10.166c23.042,39.792 48.083,77.459 74.792,112.917c126.625,167.959 291.25,283.916 473.833,321.708c-89.75,-279.791 -147.625,-573.875 -169.583,-877.875c-0.584,-7.333 -1.084,-14.791 -1.542,-22.208c-0.458,-7 -0.958,-14.083 -1.416,-21.166c-0.584,-10.5 -1.167,-21 -1.751,-31.542c-0.25,-4.25 -0.5,-8.5 -0.708,-12.75c-0.625,-12.751 -1.208,-25.625 -1.667,-38.375l-0.375,-8.042c-0.458,-14.167 -0.916,-28.333 -1.291,-42.5l-0.125,-4.042c-0.333,-15.333 -0.709,-30.708 -0.834,-46.041l-0.083,-1.542c-0.125,-15.959 -0.25,-32 -0.25,-47.958c0,-16.042 0.125,-32.125 0.25,-48.084l0.083,-1.416c0.125,-15.459 0.501,-30.792 0.834,-46.167l0.125,-3.875c0.375,-14.334 0.833,-28.5 1.291,-42.666l0.375,-8.043c0.459,-12.749 1.042,-25.499 1.667,-38.374c0.208,-4.25 0.458,-8.375 0.708,-12.626c0.584,-10.625 1.167,-21.166 1.751,-31.666c0.458,-7.084 0.958,-14.167 1.416,-21.25c0.458,-7.333 0.958,-14.667 1.542,-22.084c21.958,-303.999 79.833,-598 169.583,-877.791c-182.583,37.667 -347.208,153.666 -473.833,321.708c-160.042,212.25 -258.917,506.334 -258.917,832.334c0,266.917 66.375,512.5 178.25,709.25Zm11649.5,48.083l-0,8436.5c-0,12.292 -2.582,23.958 -7.208,34.5l-0,0.083c-0.208,0.625 -0.582,1.209 -0.792,1.792l-0.124,0.208l-0.708,1.667l-0.25,0.375l-0.708,1.417l-0.334,0.583l-0.624,1.167l-0.46,0.708l-0.582,1.083l-0.46,0.834l-0.625,1.041l-0.457,0.709l-0.708,1.083l-0.46,0.792l-0.708,0.958l-0.501,0.708l-0.791,1.167l-0.374,0.5c-0.334,0.458 -0.708,0.833 -0.959,1.292l-0.333,0.375c-0.375,0.458 -0.708,0.916 -1.209,1.416l-0.083,0.209c-0.499,0.583 -0.958,1.083 -1.416,1.667c-2.834,3.416 -6.043,6.499 -9.459,9.458c-0.457,0.458 -1.082,0.916 -1.542,1.291l-0.374,0.209c-0.334,0.375 -0.792,0.708 -1.292,1.083l-0.458,0.375c-0.333,0.333 -0.834,0.708 -1.292,0.917l-0.457,0.375l-1.209,0.916l-0.708,0.5l-0.96,0.584l-0.792,0.583l-1.082,0.583l-0.708,0.5l-0.958,0.584l-0.918,0.583l-0.958,0.583l-0.834,0.375l-1.166,0.709l-0.584,0.208l-1.416,0.708l-0.374,0.25l-1.542,0.709l-0.334,0.25c-0.584,0.208 -1.209,0.458 -1.792,0.708l-0,0.083c-10.625,4.5 -22.291,7.125 -34.459,7.125l-14823.2,0c-12.288,0 -23.979,-2.5 -34.608,-7.125l-0,-0.083c-0.592,-0.25 -1.18,-0.5 -1.771,-0.708l-0.238,-0.25l-1.654,-0.709l-0.354,-0.25l-1.417,-0.708l-0.591,-0.208l-1.18,-0.709l-0.708,-0.375l-1.062,-0.583l-0.946,-0.583l-0.946,-0.584l-0.708,-0.5l-1.063,-0.583l-0.825,-0.583l-0.946,-0.584l-0.708,-0.5l-1.183,-0.916l-0.471,-0.375c-0.475,-0.209 -0.829,-0.584 -1.3,-0.917l-0.471,-0.375c-0.354,-0.375 -0.829,-0.708 -1.3,-1.083l-0.238,-0.209c-0.587,-0.375 -1.183,-0.833 -1.654,-1.291c-3.425,-2.959 -6.496,-6.042 -9.446,-9.458c-0.474,-0.584 -0.945,-1.084 -1.299,-1.667l-0.238,-0.209c-0.354,-0.5 -0.709,-0.958 -1.063,-1.416l-0.354,-0.375c-0.354,-0.459 -0.708,-0.834 -0.946,-1.292l-0.354,-0.5l-0.941,-1.167l-0.475,-0.708l-0.592,-0.958l-0.588,-0.792l-0.591,-1.083l-0.475,-0.709l-0.588,-1.041l-0.591,-0.834l-0.592,-1.083l-0.354,-0.708l-0.709,-1.167l-0.237,-0.583l-0.825,-1.417l-0.117,-0.375l-0.829,-1.667l-0.117,-0.208c-0.237,-0.583 -0.475,-1.167 -0.825,-1.792l0,-0.083c-4.608,-10.542 -7.087,-22.208 -7.087,-34.5l0,-8436.5c0,-28.333 13.583,-53.5 34.721,-69.333l7408.23,-6143.98c32.958,-27.166 79.958,-25.988 111.375,0.824l7407.29,6143.28c21.041,15.709 34.707,40.876 34.707,69.209Zm-4862.25,1946.92c113.041,-25.042 222.208,-36.375 323.042,-33.876c255.624,6.25 462.749,100.042 561.041,279.793l0.125,0.333c83.25,152.374 72.167,337.083 -13.958,522.792l3638.42,-2629.38l-2872.21,-0c-20.083,32.124 -41.25,63.041 -63.541,92.583c-155.459,206.208 -362.042,347.375 -594.126,389.875l-4.125,0.708c-2.25,0.375 -4.5,0.833 -6.75,1.209c-2.458,0.333 -4.833,0.791 -7.292,1.166l-2.833,0.458c-3.417,0.584 -6.999,1.083 -10.542,1.542l-1.499,0.25c-3.792,0.583 -7.709,1.042 -11.583,1.542l-0.251,-0c-12.291,1.625 -24.541,2.833 -36.957,3.874c-191.209,505.043 -487.667,958.334 -862.584,1333.25c-11.333,11.334 -22.791,22.668 -34.375,33.876Zm-767.708,377.5c84.916,-69.584 180.25,-134.417 284.416,-191.958c139.958,-104.376 272.125,-218.625 395.333,-341.917c274.459,-274.5 504.917,-593.042 679.709,-944.167c-2958.67,2666.33 -5558.38,825.25 -6442.21,26.083c173.167,340.875 398.875,650.459 666.5,918.084c529.709,529.75 1223.63,895.292 1998.92,1013.88l0.584,0.083c43.708,6.625 87.625,12.542 131.916,17.625l6.167,0.708c12.875,1.417 25.708,2.833 38.583,4.125l4.958,0.584c28.709,2.833 57.542,5.458 86.458,7.708c3.084,0.208 6.167,0.459 9.25,0.584c11.084,0.916 22.167,1.624 33.417,2.332c3.751,0.251 7.542,0.501 11.334,0.709c11.916,0.834 23.833,1.416 35.916,2.125c2.125,0.126 4.25,0.25 6.501,0.375c14.166,0.709 28.333,1.292 42.625,1.875c3.083,0.125 6.25,0.25 9.333,0.375c10.958,0.334 21.958,0.708 32.958,0.916c4.458,0.126 9.084,0.251 13.667,0.376c10.042,0.25 20.083,0.458 30.124,0.583c4.376,0.125 8.751,0.125 13.126,0.25c14.041,0.125 28.125,0.25 42.166,0.25c14.625,0 29.167,-0.125 43.709,-0.25c4.708,-0.125 9.458,-0.25 14.291,-0.25c9.792,-0.208 19.584,-0.333 29.417,-0.583c5.542,-0.125 10.959,-0.376 16.416,-0.459c9.209,-0.249 18.418,-0.625 27.626,-0.833c5.417,-0.25 10.958,-0.5 16.541,-0.708c9.334,-0.375 18.542,-0.709 27.875,-1.209c5.167,-0.208 10.375,-0.458 15.708,-0.791c10.043,-0.5 19.959,-1.083 30,-1.667c4.375,-0.25 8.709,-0.583 13.209,-0.833c13.333,-0.834 26.833,-1.792 40.292,-2.833l2.458,-0.126c15,-1.166 29.917,-2.333 44.792,-3.749l3.541,-0.25c13.334,-1.209 26.667,-2.501 39.917,-3.793c3.042,-0.332 6.125,-0.708 9.083,-1.041c11.584,-1.208 23.042,-2.375 34.5,-3.667c3.417,-0.375 6.834,-0.833 10.25,-1.208c11.458,-1.292 22.917,-2.708 34.25,-4.125l9.001,-1.167c12.416,-1.541 24.916,-3.208 37.333,-4.958c1.749,-0.25 3.542,-0.5 5.417,-0.708c493.207,-69.209 954.582,-238.458 1362.62,-486.375Zm-5432.13,349.958c-69.208,-171.5 -72.875,-340.292 4.167,-481.208l0.209,-0.459c98.291,-179.625 305.458,-273.417 560.916,-279.667c116.458,-2.833 243.875,12.625 375.583,46.501c-15.958,-15.333 -31.666,-30.916 -47.375,-46.501c-374.875,-374.916 -671.208,-828.207 -862.541,-1333.25c-16.292,-1.291 -32.584,-3.166 -48.792,-5.416l-1.542,-0.25c-3.416,-0.459 -6.958,-1.041 -10.375,-1.542l-3.208,-0.583c-2.209,-0.333 -4.583,-0.708 -6.833,-1.041c-2.375,-0.501 -4.709,-0.834 -6.958,-1.209l-4.125,-0.833c-232.001,-42.375 -438.459,-183.542 -594.001,-389.75c-22.208,-29.542 -43.333,-60.459 -63.416,-92.583l-2872.33,-0l3580.62,2587.79Zm615.834,657.875c-95.792,-57.541 -183.417,-121.333 -261.25,-188.875l-4115.67,-2974.38l-0,8058.54l3077.96,-3078.04c33.75,-33.792 88.582,-33.792 122.458,0c33.792,33.875 33.792,88.667 -0,122.458l-3078.06,3077.96l14405.2,-0l-3077.96,-3077.96c-33.876,-33.791 -33.876,-88.583 -0,-122.458c33.791,-33.792 88.582,-33.792 122.374,0l3078.08,3078.04l-0,-8058.54l-6675.25,4824.08l-597.749,431.959c-3.917,2.958 -8.042,5.541 -12.292,7.791l-0.125,0l-1.167,0.709l-0.708,0.25l-0.584,0.333l-1.207,0.583l-0.084,0c-11,5.084 -22.709,7.584 -34.249,7.792l-3.334,-0c-11.583,-0.208 -23.25,-2.708 -34.125,-7.792l-0.125,0l-1.292,-0.583l-0.584,-0.333l-0.583,-0.25l-1.333,-0.709l-0.084,0c-4.25,-2.25 -8.291,-4.833 -12.166,-7.791l-2896.08,-2092.79Zm671.708,-1049.17c-4.375,-1.916 -8.625,-4.167 -12.667,-6.874c-245.291,-132.626 -496.75,-195.834 -705.583,-190.751c-190.958,4.75 -342.5,66.625 -410.542,184.501c-1.749,3.999 -3.791,7.791 -6.25,11.458c-62.375,121.042 -32.499,281.916 66.959,445.166c58.583,96.25 140.667,192.167 242,281.209l249.208,180.125c16.666,9.916 33.542,19.5 50.667,29.041c4.375,1.875 8.625,4.126 12.666,6.834c245.292,132.667 496.75,195.833 705.584,190.75c194.042,-4.834 347.25,-68.5 413.75,-190.125c66.375,-121.667 37.083,-285.126 -63.917,-450.959c-108.666,-178.583 -297.75,-355.875 -541.875,-490.375Zm4241.21,185.167c-114.334,95.667 -206.084,200.208 -270.001,305.208c-101,165.833 -130.25,329.292 -63.792,450.959c66.376,121.625 219.585,185.291 413.625,190.125c210.709,5.083 464.667,-59.167 712.001,-194.167l0.083,-0.083c247.083,-134.917 438.459,-313.708 548.042,-493.709c99.458,-163.25 129.333,-324.124 66.958,-445.166c-2.334,-3.667 -4.458,-7.459 -6.25,-11.458c-68.041,-117.876 -219.458,-179.751 -410.542,-184.501c-208.708,-5.083 -459.916,58 -705.125,190.5c-91.875,68.293 -186.958,132.417 -284.999,192.292Zm-3435.46,1718.88l0,-530.333c0,-41.458 33.542,-75 75,-75l2805.12,-0c41.458,-0 75,33.542 75,75l0,520.166l856.625,-618.999c-105,21.708 -206.208,31.291 -300.458,29.041c-252.167,-6.125 -457.209,-97.542 -557,-272.708c-3.208,-4.626 -5.917,-9.709 -8.167,-14.875c-92.25,-176.833 -59.875,-395.917 67.792,-609.126c-241.625,108.334 -496.751,192.084 -762.167,247.792l-1.292,0.375c-12.5,2.584 -25.041,5.209 -37.541,7.667l-4.042,0.708c-12.292,2.501 -24.542,4.833 -36.958,7.209l-2.584,0.458c-50.083,9.334 -100.541,17.75 -151.207,25.167c-3.543,0.5 -6.959,0.958 -10.501,1.541c-9.458,1.292 -18.916,2.626 -28.333,3.917c-5.334,0.709 -10.625,1.417 -16.084,2.125c-8.624,1.041 -17.333,2.25 -26.083,3.292c-6.167,0.708 -12.292,1.417 -18.417,2.25c-8.291,0.958 -16.541,1.875 -24.958,2.833c-6.584,0.709 -13.208,1.417 -19.958,2.125c-7.917,0.833 -15.917,1.75 -23.834,2.459c-7.458,0.833 -14.75,1.457 -22.208,2.166c-7.334,0.708 -14.667,1.416 -21.959,2c-14.166,1.292 -28.374,2.458 -42.541,3.541c-5.541,0.459 -11.083,0.834 -16.667,1.167c-9.542,0.709 -19.124,1.417 -28.666,2c-6.292,0.501 -12.542,0.834 -18.667,1.209c-9,0.458 -17.833,1.041 -26.834,1.542c-6.374,0.208 -12.749,0.583 -19.124,0.916c-8.876,0.375 -17.833,0.833 -26.709,1.209c-6.374,0.207 -12.624,0.457 -18.999,0.708c-9.209,0.333 -18.418,0.583 -27.626,0.791c-6.041,0.25 -11.958,0.376 -17.958,0.501c-10.167,0.208 -20.333,0.457 -30.458,0.583c-5.083,0.125 -10.167,0.25 -15.251,0.25c-15.124,0.208 -30.457,0.333 -45.708,0.333c-14.75,0 -29.541,-0.125 -44.291,-0.25c-4.625,-0.083 -9.084,-0.208 -13.708,-0.208c-10.375,-0.251 -20.792,-0.376 -31.167,-0.583c-5.083,-0.125 -10.166,-0.25 -15.126,-0.376c-10.749,-0.333 -21.499,-0.708 -32.25,-1.041c-3.999,-0.125 -8.166,-0.251 -12.291,-0.501c-14.291,-0.458 -28.584,-1.166 -42.875,-1.875c-4.25,-0.249 -8.5,-0.457 -12.75,-0.708c-10.167,-0.5 -20.417,-1.083 -30.708,-1.666c-5.667,-0.333 -11.459,-0.834 -17.251,-1.167c-8.833,-0.584 -17.832,-1.208 -26.666,-1.916c-5.916,-0.334 -11.834,-0.793 -17.75,-1.292c-9.791,-0.709 -19.583,-1.542 -29.375,-2.334c-8.167,-0.708 -16.333,-1.417 -24.458,-2.25c-9.584,-0.833 -19.251,-1.791 -28.958,-2.749c-7.084,-0.709 -14.042,-1.417 -21.125,-2.209c-6.958,-0.708 -13.959,-1.417 -20.917,-2.25c-7.542,-0.833 -15.126,-1.666 -22.667,-2.625c-6.25,-0.709 -12.5,-1.417 -18.666,-2.208c-8.043,-0.958 -16.042,-1.917 -23.959,-2.958c-1.792,-0.25 -3.542,-0.501 -5.333,-0.709c-19.959,-2.625 -39.917,-5.334 -59.75,-8.292c-3.792,-0.583 -7.584,-1.041 -11.334,-1.624c-9.583,-1.417 -19.25,-2.959 -28.833,-4.501l-10.375,-1.666c-10.291,-1.626 -20.584,-3.292 -30.834,-5.083l-0.833,-0.125c-338.875,-57.25 -662.5,-159.792 -964.249,-300.917c3.874,6.125 7.791,12.292 11.458,18.417c133,218.374 166.166,443.499 67.917,623.374c-98.167,180 -305.459,273.917 -561.168,280.167c-78.041,1.875 -160.957,-4.375 -246.957,-19l856.666,619.125Zm150,103.458c0,1.542 0,3.209 -0.125,4.834l1320.71,954.458l1334.54,-964.5l0,-553.583l-2655.12,-0l0,558.791Zm1320.58,-8824.5c1042.79,-0 1986.96,422.75 2670.33,1106.12c374.917,374.875 671.375,828.292 862.584,1333.21c265.249,21.374 502.415,170.458 675.958,400.75c181.749,241.083 294.082,572.125 294.082,936.5c0,244.25 -50.541,473.499 -138.541,670.875l2807.33,-0l-7171.75,-5947.92l-7171.78,5947.92l2807.61,-0c-88.125,-197.376 -138.542,-426.625 -138.542,-670.875c0,-364.375 112.292,-695.417 293.958,-936.5c173.5,-230.209 410.667,-379.376 675.834,-400.625c191.333,-505.041 487.666,-958.458 862.541,-1333.33c683.417,-683.375 1627.58,-1106.12 2670.38,-1106.12Z" style="fill-rule:nonzero;"/><path d="M5802.28,9076.98c-91.75,165.834 -401.708,517.334 -872.25,269.792c-296.792,-156.166 -626.208,-479.417 -870.833,-749.666c-18.875,107.25 16.333,234.208 94.5,362.624c58.583,96.25 140.667,192.167 242,281.209l249.208,180.125c16.666,9.916 33.542,19.5 50.667,29.041c4.375,1.875 8.625,4.126 12.666,6.834c245.292,132.667 496.75,195.833 705.584,190.75c194.042,-4.834 347.25,-68.5 413.75,-190.125c56.916,-104.417 43.458,-239.541 -25.292,-380.584Z" style="fill:#ccf;"/><path d="M6863.86,9199.11c-338.875,-57.25 -662.5,-159.792 -964.249,-300.917c3.874,6.125 7.791,12.292 11.458,18.417c33.666,55.291 60.916,110.916 81.25,166.041c125.917,85.042 321.5,213.333 573.541,299.542c457.667,156.5 1154.54,221.458 1612.21,79.75c308.043,-95.459 624.209,-291.167 797.959,-408.917c17.708,-43.209 39.666,-86.458 65.417,-129.584c-241.625,108.334 -496.751,192.084 -762.167,247.792l-1.292,0.375c-12.5,2.584 -25.041,5.209 -37.541,7.667l-4.042,0.708c-12.292,2.501 -24.542,4.833 -36.958,7.209l-2.584,0.458c-50.083,9.334 -100.541,17.75 -151.207,25.167l-10.501,1.541c-9.458,1.292 -18.916,2.626 -28.333,3.917l-16.084,2.125c-8.624,1.041 -17.333,2.25 -26.083,3.292l-18.417,2.25c-8.291,0.958 -16.541,1.875 -24.958,2.833l-19.958,2.125c-7.917,0.833 -15.917,1.75 -23.834,2.459c-7.458,0.833 -14.75,1.457 -22.208,2.166c-7.334,0.708 -14.667,1.416 -21.959,2c-14.166,1.292 -28.374,2.458 -42.541,3.541c-5.541,0.459 -11.083,0.834 -16.667,1.167c-9.542,0.709 -19.124,1.417 -28.666,2c-6.292,0.501 -12.542,0.834 -18.667,1.209c-9,0.458 -17.833,1.041 -26.834,1.542l-19.124,0.916c-8.876,0.375 -17.833,0.833 -26.709,1.209l-18.999,0.708c-9.209,0.333 -18.418,0.583 -27.626,0.791l-17.958,0.501c-10.167,0.208 -20.333,0.457 -30.458,0.583l-15.251,0.25c-15.124,0.208 -30.457,0.333 -45.708,0.333c-14.75,0 -29.541,-0.125 -44.291,-0.25l-13.708,-0.208c-10.375,-0.251 -20.792,-0.376 -31.167,-0.583l-15.126,-0.376c-10.749,-0.333 -21.499,-0.708 -32.25,-1.041l-12.291,-0.501c-14.291,-0.458 -28.584,-1.166 -42.875,-1.875l-12.75,-0.708c-10.167,-0.5 -20.417,-1.083 -30.708,-1.666l-17.251,-1.167c-8.833,-0.584 -17.832,-1.208 -26.666,-1.916l-17.75,-1.292c-9.791,-0.709 -19.583,-1.542 -29.375,-2.334l-24.458,-2.25c-9.584,-0.833 -19.251,-1.791 -28.958,-2.749c-7.084,-0.709 -14.042,-1.417 -21.125,-2.209l-20.917,-2.25l-22.667,-2.625l-18.666,-2.208c-8.043,-0.958 -16.042,-1.917 -23.959,-2.958l-5.333,-0.709c-19.959,-2.625 -39.917,-5.334 -59.75,-8.292l-11.334,-1.624c-9.583,-1.417 -19.25,-2.959 -28.833,-4.501l-10.375,-1.666c-10.291,-1.626 -20.584,-3.292 -30.834,-5.083l-0.833,-0.125Z" style="fill:#ccf;"/><path d="M9135.82,9118.11c-52.084,126 -58.125,245.209 -6.626,339.459c66.376,121.625 219.585,185.291 413.625,190.125c210.709,5.083 464.667,-59.167 712.001,-194.167l0.083,-0.083c247.083,-134.917 438.459,-313.708 548.042,-493.709c23.166,-37.916 42.542,-75.833 57.875,-113.041c-227.584,227.958 -615.126,553 -1049.88,647.708c-470.084,102.542 -624.459,-183.167 -675.125,-376.292Z" style="fill:#ccf;"/><path d="M9538.82,9820.15c-247.792,-6.125 -450.125,-94.5 -551.833,-263.75c30.624,278.042 351.499,428.167 351.499,428.167c-0,-0 -145.833,109.5 -355.833,260.792l0,164.749l856.625,-618.999c-105,21.708 -206.208,31.291 -300.458,29.041Z" style="fill:#ccf;"/><path d="M8832.65,10352.6c-448.125,318.041 -1063.5,733.333 -1277.62,774.666c-213.043,41.208 -883.001,-396.25 -1377.5,-747.167l0,143.625c0,1.542 0,3.209 -0.125,4.834l1320.71,954.458l1334.54,-964.5l0,-165.916Z" style="fill:#ccf;"/><path d="M5417.82,9820.15c-78.041,1.875 -160.957,-4.375 -246.957,-19l856.666,619.125l0,-147.625c-244.958,-177.542 -418.375,-311.708 -418.375,-311.708c0,-0 35.459,-0 171.292,-103.334c59.166,-45 104.874,-139.25 137.583,-231.375c-110.916,123.751 -289.004,188.709 -500.209,193.917Z" style="fill:#ccf;"/><path d="M7399.03,8852.94c-11,-0.334 -22,-0.708 -32.958,-1.042l-9.333,-0.375c-14.292,-0.583 -28.459,-1.167 -42.625,-1.875l-6.501,-0.374c-12.083,-0.584 -24,-1.292 -35.916,-2.001l-11.334,-0.708c-11.25,-0.834 -22.333,-1.542 -33.417,-2.376l-9.25,-0.708c-28.916,-2.208 -57.749,-4.708 -86.458,-7.667l-4.958,-0.457c-12.875,-1.292 -25.708,-2.709 -38.583,-4.251l-6.167,-0.708c-44.291,-5.083 -88.208,-10.875 -131.916,-17.625l-0.584,-0.125c-775.291,-118.459 -1469.21,-484 -1998.92,-1013.71c-140.541,-140.583 -269.541,-292.708 -385.375,-454.875c-107.125,-85.251 -201.166,-166.167 -281.125,-238.459c173.167,340.875 398.875,650.459 666.5,918.084c529.709,529.75 1223.63,895.292 1998.92,1013.88l0.584,0.083c43.708,6.625 87.625,12.542 131.916,17.625l6.167,0.708c12.875,1.417 25.708,2.833 38.583,4.125l4.958,0.584c28.709,2.833 57.542,5.458 86.458,7.708l9.25,0.584c11.084,0.916 22.167,1.624 33.417,2.332l11.334,0.709c11.916,0.834 23.833,1.416 35.916,2.125l6.501,0.375c14.166,0.709 28.333,1.292 42.625,1.875l9.333,0.375c10.958,0.334 21.958,0.708 32.958,0.916l13.667,0.376c10.042,0.25 20.083,0.458 30.124,0.583l13.126,0.25c14.041,0.125 28.125,0.25 42.166,0.25c14.625,0 29.167,-0.125 43.709,-0.25c4.708,-0.125 9.458,-0.25 14.291,-0.25c9.792,-0.208 19.584,-0.333 29.417,-0.583l16.416,-0.459c9.209,-0.249 18.418,-0.625 27.626,-0.833l16.541,-0.708c9.334,-0.375 18.542,-0.709 27.875,-1.209l15.708,-0.791c10.043,-0.5 19.959,-1.083 30,-1.667l13.209,-0.833c13.333,-0.834 26.833,-1.792 40.292,-2.833l2.458,-0.126c15,-1.166 29.917,-2.333 44.792,-3.749l3.541,-0.25c13.334,-1.209 26.667,-2.501 39.917,-3.793l9.083,-1.041c11.584,-1.208 23.042,-2.375 34.5,-3.667l10.25,-1.208c11.458,-1.292 22.917,-2.708 34.25,-4.125l9.001,-1.167c12.416,-1.541 24.916,-3.208 37.333,-4.958l5.417,-0.708c493.207,-69.209 954.582,-238.458 1362.62,-486.375c84.916,-69.584 180.25,-134.417 284.416,-191.958c139.958,-104.376 272.125,-218.625 395.333,-341.917c274.459,-274.5 504.917,-593.042 679.709,-944.167c-91.292,82.209 -182.126,160.042 -272.584,233.875c-121.416,173.583 -257.708,336.125 -407.125,485.542c-123.208,123.167 -255.375,237.5 -395.333,341.917c-104.166,57.416 -199.5,122.249 -284.416,191.791c-408.043,248.041 -869.418,417.167 -1362.62,486.417l-5.417,0.792c-12.417,1.666 -24.917,3.333 -37.333,4.958l-9.001,1.083c-11.333,1.417 -22.792,2.833 -34.25,4.125l-10.25,1.209c-11.458,1.291 -22.916,2.582 -34.5,3.749l-9.083,0.958c-13.25,1.292 -26.583,2.584 -39.917,3.793l-3.541,0.332c-14.875,1.292 -29.792,2.626 -44.792,3.668l-2.458,0.25c-13.459,0.916 -26.959,1.875 -40.292,2.708l-13.209,0.833c-10.041,0.584 -19.957,1.167 -30,1.751l-15.708,0.708c-9.333,0.499 -18.541,0.958 -27.875,1.291l-16.541,0.625c-9.208,0.334 -18.417,0.583 -27.626,0.791l-16.416,0.501c-9.833,0.25 -19.625,0.458 -29.417,0.583c-4.833,0.125 -9.583,0.25 -14.291,0.25c-14.542,0.125 -29.084,0.209 -43.709,0.209c-14.041,-0 -28.125,-0 -42.166,-0.209l-13.126,-0.25c-10.041,-0.125 -20.082,-0.25 -30.124,-0.458l-13.667,-0.375Z" style="fill:#ccf;"/><path d="M7498.11,1872.4c-995.083,-0 -1895.92,403.333 -2548,1055.42c-267.625,267.666 -493.333,577.333 -666.5,918.208c53.5,-48.417 113.375,-100.75 179.292,-155.542c140.458,-219.125 304.042,-422.041 487.208,-605.208c652.083,-652.083 1552.92,-1055.42 2548,-1055.42c995.084,0 1895.92,403.334 2548,1055.42c191.584,191.583 361.751,404.75 506.542,635.542c57.542,48.666 115.292,99.083 173.167,151.292c-174.792,-351.125 -405.25,-669.792 -679.709,-944.292c-652.083,-652.084 -1552.92,-1055.42 -2548,-1055.42Z" style="fill:#ccf;"/><path d="M3649.24,4429.73c-37.208,171.959 -62.833,348.292 -75.833,528.167l-1.5,22.083l-1.417,21.292c-0.624,10.501 -1.208,21 -1.791,31.5l-0.709,12.792c-0.583,12.75 -1.166,25.5 -1.666,38.374l-0.334,7.918c-0.458,14.166 -0.958,28.457 -1.292,42.625l-0.124,4c-0.375,15.374 -0.709,30.707 -0.834,46.083l0,1.416c-0.25,16.042 -0.333,32.001 -0.333,48.084c0,16.042 0.083,31.999 0.333,48.041l0,1.417c0.125,15.375 0.459,30.833 0.834,46.208l0.124,3.876c0.334,14.291 0.834,28.457 1.292,42.666l0.334,8c0.5,12.75 1.083,25.541 1.666,38.292l0.709,12.75c0.583,10.625 1.167,21.125 1.791,31.667l1.417,21.124l1.5,22.209c22,304 80,598 169.625,877.791c-162.5,-33.542 -310.875,-129.208 -430.875,-268.249c11,22.207 22.583,44.082 34.625,65.208c2.125,3.333 4.125,6.75 5.875,10.166c23.042,39.792 48.083,77.459 74.792,112.917c126.625,167.959 291.25,283.916 473.833,321.708c-89.75,-279.791 -147.625,-573.875 -169.583,-877.875l-1.542,-22.208l-1.416,-21.166c-0.584,-10.5 -1.167,-21 -1.751,-31.542l-0.708,-12.75c-0.625,-12.751 -1.208,-25.625 -1.667,-38.375l-0.375,-8.042c-0.458,-14.167 -0.916,-28.333 -1.291,-42.5l-0.125,-4.042c-0.333,-15.333 -0.709,-30.708 -0.834,-46.041l-0.083,-1.542c-0.125,-15.959 -0.25,-32 -0.25,-47.958c0,-16.042 0.125,-32.125 0.25,-48.084l0.083,-1.416c0.125,-15.459 0.501,-30.792 0.834,-46.167l0.125,-3.875c0.375,-14.334 0.833,-28.5 1.291,-42.666l0.375,-8.043c0.459,-12.749 1.042,-25.499 1.667,-38.374l0.708,-12.626c0.584,-10.625 1.167,-21.166 1.751,-31.666l1.416,-21.25l1.542,-22.084c21.958,-303.999 79.833,-598 169.583,-877.791c-89.042,18.291 -173.833,55.375 -252.042,107.958Z" style="fill:#ccf;"/><path d="M11346.9,4429.73c37.334,171.959 62.876,348.292 75.834,528.167l1.542,22.083l1.417,21.292c0.583,10.501 1.207,21 1.791,31.5l0.708,12.792c0.584,12.75 1.167,25.5 1.626,38.374l0.374,7.918c0.459,14.166 0.958,28.457 1.292,42.625l0.125,4c0.334,15.374 0.708,30.707 0.833,46.083l0.125,1.416c0.084,16.042 0.209,32.001 0.209,48.084c-0,16.042 -0.125,31.999 -0.209,48.041l-0.125,1.417c-0.125,15.375 -0.499,30.833 -0.833,46.208l-0.125,3.876c-0.334,14.291 -0.833,28.457 -1.292,42.666l-0.374,8c-0.459,12.75 -1.042,25.541 -1.626,38.292l-0.708,12.75c-0.584,10.625 -1.208,21.125 -1.791,31.667l-1.417,21.124l-1.542,22.209c-21.958,304 -79.833,598 -169.584,877.791c162.626,-33.542 310.876,-129.208 430.876,-268.249c-11,22.207 -22.584,44.082 -34.625,65.208c-2.125,3.333 -4.125,6.75 -5.792,10.166c-23.125,39.792 -48.166,77.459 -74.75,112.917c-126.75,167.959 -291.25,283.916 -474,321.708c89.792,-279.791 147.666,-573.875 169.625,-877.875l1.667,-22.208l1.292,-21.166c0.583,-10.5 1.291,-21 1.75,-31.542l0.708,-12.75c0.583,-12.751 1.208,-25.625 1.667,-38.375l0.332,-8.042c0.501,-14.167 0.959,-28.333 1.334,-42.5l0.125,-4.042c0.334,-15.333 0.708,-30.708 0.917,-46.041l-0,-1.542c0.125,-15.959 0.25,-32 0.25,-47.958c-0,-16.042 -0.125,-32.125 -0.25,-48.084l-0,-1.416c-0.209,-15.459 -0.583,-30.792 -0.917,-46.167l-0.125,-3.875c-0.375,-14.334 -0.833,-28.5 -1.334,-42.666l-0.332,-8.043c-0.459,-12.749 -1.084,-25.499 -1.667,-38.374l-0.708,-12.626c-0.459,-10.625 -1.167,-21.166 -1.75,-31.666l-1.292,-21.25l-1.542,-22.084c-22.084,-303.999 -79.958,-598 -169.75,-877.791c89.084,18.291 173.875,55.375 252.041,107.958Z" style="fill:#ccf;"/><path d="M3225.95,6319.73l-450.125,-0c20.083,29.041 41.333,57.041 63.541,83.708c155.459,186.624 362,314.417 594.001,352.917l4.125,0.583l6.833,1.083l6.958,1.083l3.208,0.459l10.375,1.416l1.542,0.25c16.208,2 32.5,3.626 48.792,4.833c191.208,457.084 487.666,867.376 862.541,1206.63c15.625,14.166 31.417,28.208 47.375,42.167c-131.708,-30.751 -259.125,-44.668 -375.583,-42.084c-255.458,5.667 -462.625,90.5 -560.916,253.125l-0.334,0.334c-59.167,98.291 -70.625,211.416 -41.125,329.208l487.083,352.083c-69.208,-171.5 -72.875,-340.292 4.167,-481.208l0.209,-0.459c98.291,-179.625 305.458,-273.417 560.916,-279.667c116.458,-2.833 243.875,12.625 375.583,46.501c-15.958,-15.333 -31.666,-30.916 -47.375,-46.501c-374.875,-374.916 -671.208,-828.207 -862.541,-1333.25c-16.292,-1.291 -32.584,-3.166 -48.792,-5.416l-1.542,-0.25l-10.375,-1.542l-3.208,-0.583l-6.833,-1.041l-6.958,-1.209l-4.125,-0.833c-232.001,-42.375 -438.459,-183.542 -594.001,-389.75c-22.208,-29.542 -43.333,-60.459 -63.416,-92.583Z" style="fill:#808080;"/><path d="M10457.1,8146.19c255.624,6.25 462.749,100.042 561.041,279.793l0.125,0.333c83.25,152.374 72.167,337.083 -13.958,522.792l450.25,-325.292c45.833,-136.083 40.166,-267.875 -27.042,-380.417l-0.25,-0.374c-98.25,-164.043 -305.417,-249.668 -560.916,-255.459c-100.958,-2.25 -210.084,8 -323.125,30.916c11.583,-10.25 23,-20.541 34.458,-30.916c374.791,-342.292 671.249,-756.292 862.458,-1217.5c12.417,-0.834 24.792,-2.001 36.958,-3.417l0.375,-0.125l11.584,-1.417l1.416,-0.125l10.5,-1.416l2.834,-0.459l7.333,-1.083l6.833,-1.042l4,-0.708c232.125,-38.75 438.667,-167.708 594.251,-356c22.207,-27.041 43.333,-55.166 63.416,-84.541l-409.125,-0c-20.083,32.124 -41.25,63.041 -63.541,92.583c-155.459,206.208 -362.042,347.375 -594.126,389.875l-4.125,0.708l-6.75,1.209l-7.292,1.166l-2.833,0.458l-10.542,1.542l-1.499,0.25l-11.583,1.542l-0.251,-0c-12.291,1.625 -24.541,2.833 -36.957,3.874c-191.209,505.043 -487.667,958.334 -862.584,1333.25c-11.333,11.334 -22.791,22.668 -34.375,33.876c113.041,-25.042 222.208,-36.375 323.042,-33.876Z" style="fill:#808080;"/><path d="M2290.15,12343.6c-648.875,494.083 -1474.25,1045.29 -1721.34,977.625c-132.755,-36.375 -269.646,-754.167 -395.667,-1730.33l-0,2869.83l2117,-2117.12Z" style="fill:#f0a93e;"/><path d="M2131.78,12746.8l-1836.27,1836.25l14405.2,-0l-2320.38,-2320.29c509.751,646.208 1139.42,1521.17 1038.88,1784.79c-165.333,434.041 -11235.2,215.541 -11884.8,115.125c-338.971,-52.292 95.916,-759.667 597.416,-1415.88Z" style="fill:#f0a93e;"/><path d="M12148.4,11786l2674.75,2674.71l-0,-8058.54l-1.416,0.959c-7.709,1384.25 -60,6113.96 -416.333,6398.37c-309.46,247.084 -1605.71,-573.416 -2257,-1015.5Z" style="fill:#f0a93e;"/><path d="M600.233,6710.9c762.296,692.958 1923.88,1691.79 3287.46,2674.25c2450.79,1765.75 3484.29,2465.54 3767.75,2483.25c178.333,11.25 2582.58,-1960.04 4341.37,-3423.62l-3848.88,2781.46l-597.749,431.959c-3.917,2.958 -8.042,5.541 -12.292,7.791l-0.125,0l-1.167,0.709l-0.708,0.25l-0.584,0.333l-1.207,0.583l-0.084,0c-11,5.084 -22.709,7.584 -34.249,7.792l-3.334,-0c-11.583,-0.208 -23.25,-2.708 -34.125,-7.792l-0.125,0l-1.292,-0.583l-0.584,-0.333l-0.583,-0.25l-1.333,-0.709l-0.084,0c-4.25,-2.25 -8.291,-4.833 -12.166,-7.791l-2896.08,-2092.79c-95.792,-57.541 -183.417,-121.333 -261.25,-188.875l-3688.59,-2665.62Zm6896.34,4964.75m3.209,-0" style="fill:#f8e7cd;"/><path d="M2275.86,4917.86c152.584,-265.876 186.25,-588.542 86.917,-882.292c-190.375,-563.5 -801.958,-866.084 -1365.46,-675.709c-563.504,190.542 -866.1,802.083 -675.709,1365.5c190.513,563.501 802.088,866.084 1365.46,675.709c55.167,-18.667 106.416,-40.5 156.75,-67.084c175.5,19.708 351.125,39.417 526.666,59.167c64.959,7.333 124.584,-25.625 152.917,-84.459c28.375,-58.916 16.917,-126.124 -29.292,-172.333c-72.749,-72.874 -145.5,-145.624 -218.25,-218.499Z"/><path d="M2082.15,4937.69c190.167,-252.625 231.375,-576.125 137.625,-853.792c-163.833,-484.5 -689.667,-744.708 -1174.15,-580.875c-484.488,163.709 -744.688,689.542 -580.867,1174c163.7,484.5 689.53,744.708 1174.02,581c63.792,-21.625 116.583,-45.833 173.75,-79.625c191.667,21.625 383.25,43.125 574.833,64.75c-305.208,-305.458 -203.499,-203.625 -305.208,-305.458Z" style="fill:#fff;fill-rule:nonzero;"/><path d="M1284.57,4210.02c17.958,-129.666 54.666,-203.958 165.708,-241.417c122.458,-41.458 255.459,24.334 296.792,146.834c75,221.916 -71.917,518.833 -218.709,815.666c-296.945,-146.958 -593.758,-293.75 -668.758,-515.666c-41.458,-122.5 24.329,-255.501 146.813,-296.834c111.02,-37.541 185.195,-0.833 278.154,91.417Z" style="fill:#53d2db;fill-rule:nonzero;"/><path d="M1638.78,5258.02c-484.487,163.708 -1010.32,-96.5 -1174.02,-581c-62.716,-185.416 -63.308,-377 -12.874,-551.916c-15.592,132.166 -2.834,269.75 42.637,404.166c163.7,484.5 689.529,744.709 1174,581c63.792,-21.625 116.583,-45.833 173.875,-79.625l374.75,42.167l170.208,170.333l-574.833,-64.75c-57.167,33.792 -109.958,58 -173.75,79.625Z" style="fill:#ccc;"/><path d="M1514.15,4041.48c17.625,-20.541 63.459,-10.166 102.292,23.042c39,33.167 56.333,76.75 38.75,97.333c-17.5,20.542 -63.292,10.251 -102.292,-22.917c-38.833,-33.333 -56.208,-76.916 -38.75,-97.458Z" style="fill:#fff;"/><path d="M1745.65,4148.61c-41.458,-122.458 -174.417,-188.249 -296.917,-146.916c-110.916,37.541 -147.625,111.708 -165.583,241.416c-92.958,-92.25 -167.25,-129 -278.154,-91.416c-88.583,29.875 -147.521,107.833 -157.679,194.875c-2.717,-99.917 59.529,-194.292 159.096,-227.959c111.02,-37.541 185.195,-0.833 278.154,91.417c17.958,-129.666 54.666,-203.958 165.708,-241.417c122.458,-41.458 255.459,24.334 296.792,146.834c18.083,53.375 23.292,110.999 18.791,171.958c0.709,-48.791 -5.541,-95.209 -20.208,-138.792Z" style="fill:#71e8f0;"/><path d="M1528.36,4931.11c-296.945,-146.958 -593.758,-293.75 -668.758,-515.666c-7.675,-22.792 -11.692,-45.959 -12.283,-68.875c1.654,-14.167 4.608,-28.209 8.741,-41.792c1.296,20.167 5.196,40.625 12.046,60.708c74.884,221.917 371.813,368.709 668.629,515.667c95.209,-192.167 190.25,-384.333 225.125,-556.208c-24.708,184.041 -129.125,395.083 -233.5,606.166Z" style="fill:#2ab5bf;"/><path d="M10894.9,6341.32c-3524.08,3507.67 -6586.67,231.291 -6792.29,2.958c-28,-78.666 -53.417,-158.625 -75.958,-239.75c-7.084,-25.5 -14.042,-51.5 -20.667,-77.833c-4.5,-17.25 -8.625,-34.25 -12.625,-51.042c-7.709,-31.875 -14.917,-64.125 -21.625,-96.375c-0.459,-2.709 -1.084,-5.291 -1.792,-7.917c-38,-183.874 -62.208,-372.75 -71.208,-565.625c-1.875,40.875 -3.084,81.959 -3.667,123.209l-0,0.583c-0.125,15.334 -0.208,30.834 -0.208,46.292c-0,15.374 0.083,30.833 0.208,46.167l-0,0.624c3.083,235.751 28.708,466.042 74.875,688.792c0.708,2.625 1.333,5.209 1.792,7.916c6.708,32.376 13.916,64.5 21.625,96.501c4,16.792 8.125,33.791 12.625,51.042c6.625,26.332 13.583,52.208 20.667,77.708c22.541,81.125 47.958,161.083 75.958,239.875c205.625,228.292 3268.21,3504.58 6792.29,-3.083c133.667,-376.875 206.542,-782.709 206.542,-1205.54c0,-57.042 -1.292,-113.751 -3.875,-170.084c-16.791,361.667 -86.958,709.375 -202.667,1035.58Z" style="fill:#035b99;"/><path d="M4382.95,4366.98c160.75,-178.459 2068.33,-2220.58 4577.37,-1425.79c-2646.17,-1048 -4691,1140.79 -4857.75,1326c-116.459,326.917 -187,675.709 -203.875,1038.54c9,192.875 33.208,381.751 71.208,565.625c0.708,2.626 1.333,5.208 1.792,7.917c6.708,32.25 13.916,64.5 21.625,96.375c4,16.792 8.125,33.792 12.625,51.042c6.625,26.333 13.583,52.333 20.667,77.833c22.541,81.125 47.958,161.084 75.958,239.75c25.75,28.584 96.375,105.125 207.166,210.125c-0.958,-3.291 -1.916,-6.625 -2.833,-9.917c-7.083,-25.499 -13.958,-51.499 -20.667,-77.833c-4.374,-17.25 -8.624,-34.25 -12.666,-51.041c-7.542,-31.876 -14.75,-64.126 -21.584,-96.376c-0.374,-2.708 -0.958,-5.292 -1.666,-7.916c-46.167,-222.75 -71.834,-453.042 -74.875,-688.792l-0,-0.583c-0.25,-15.375 -0.25,-30.834 -0.25,-46.334c-0,-15.333 -0,-30.791 0.25,-46.166l-0,-0.584c5.166,-407.125 77.958,-797.958 207.5,-1161.87Z" style="fill:#96d9ff;"/><path d="M4382.95,6784.23c-26.917,-75.458 -51.375,-152.125 -73.209,-229.833c-110.791,-105 -181.416,-181.541 -207.166,-210.125c-28,-78.666 -53.417,-158.625 -75.958,-239.75c-7.084,-25.5 -14.042,-51.5 -20.667,-77.833c-4.5,-17.25 -8.625,-34.25 -12.625,-51.042c-7.709,-31.875 -14.917,-64.125 -21.625,-96.375c-0.459,-2.709 -1.084,-5.291 -1.792,-7.917c-38,-183.874 -62.208,-372.75 -71.208,-565.625c-1.875,40.875 -3.084,81.959 -3.667,123.209l-0,0.583c-0.125,15.334 -0.208,30.834 -0.208,46.292c-0,15.374 0.083,30.833 0.208,46.167l-0,0.624c3.083,235.751 28.708,466.042 74.875,688.792c0.708,2.625 1.333,5.209 1.792,7.916c6.708,32.376 13.916,64.5 21.625,96.501c4,16.792 8.125,33.791 12.625,51.042c6.625,26.332 13.583,52.208 20.667,77.708c22.541,81.125 47.958,161.083 75.958,239.875c104.167,115.625 941.792,1013.87 2201.46,1415.67c-1102.58,-434.167 -1824.83,-1208.96 -1921.08,-1315.88Z" style="fill:#1888c9;"/></g></svg>